<svg xmlns="http://www.w3.org/2000/svg" viewBox="0 0 640 400">
  <defs>
    <linearGradient id="g" x1="0" y1="0" x2="1" y2="1">
      <stop offset="0" stop-color="#6366F1"/>
      <stop offset="1" stop-color="#22D3EE"/>
    </linearGradient>
    <linearGradient id="shine" x1="0" y1="0" x2="1" y2="0">
      <stop offset="0" stop-color="#FFFFFF" stop-opacity="0.0"/>
      <stop offset="0.5" stop-color="#FFFFFF" stop-opacity="0.22"/>
      <stop offset="1" stop-color="#FFFFFF" stop-opacity="0.0"/>
    </linearGradient>
    <filter id="blur" x="-20%" y="-20%" width="140%" height="140%">
      <feGaussianBlur stdDeviation="6"/>
    </filter>
  </defs>
  <rect x="20" y="20" width="600" height="360" rx="28" fill="url(#g)"/>
  <rect x="20" y="20" width="600" height="120" rx="28" fill="url(#shine)" opacity="0.6"/>
  <g fill="#fff" opacity="0.95" font-family="ui-monospace, Menlo, Monaco, monospace">
    <text x="60" y="240" font-size="28" letter-spacing="3">5321  8842  9932  1044</text>
    <text x="60" y="280" font-size="16" opacity="0.85">VALID THRU  12/28</text>
  </g>
  <g transform="translate(60,80)">
    <rect x="0" y="-26" width="64" height="64" rx="16" fill="#fff" opacity="0.18"/>
    <rect x="8" y="-18" width="12" height="48" rx="6" fill="#fff"/>
    <rect x="44" y="-18" width="12" height="48" rx="6" fill="#fff"/>
    <path d="M8 8 C18 2, 34 14, 44 8" fill="none" stroke="#fff" stroke-width="8" stroke-linecap="round"/>
  </g>
  <text x="140" y="88" font-family="Inter, system-ui, -apple-system, Segoe UI, Roboto, Arial" font-size="32" fill="#fff" font-weight="700">Helvio</text>
  <path d="M20 330 C 120 300, 220 360, 320 330 S 520 320, 620 340" stroke="#fff" stroke-opacity="0.18" stroke-width="6" fill="none" filter="url(#blur)"/>
</svg>
