<svg xmlns="http://www.w3.org/2000/svg" viewBox="0 0 960 540">
  <defs>
    <linearGradient id="bar" x1="0" y1="0" x2="0" y2="1">
      <stop offset="0" stop-color="#6366F1"/>
      <stop offset="1" stop-color="#22D3EE"/>
    </linearGradient>
  </defs>
  <rect x="10" y="10" width="940" height="520" rx="18" fill="#0b1020" opacity="0.8"/>
  <rect x="10" y="10" width="940" height="56" rx="18" fill="#11182f"/>
  <circle cx="42" cy="38" r="6" fill="#ef4444"/><circle cx="62" cy="38" r="6" fill="#f59e0b"/><circle cx="82" cy="38" r="6" fill="#22c55e"/>
  <rect x="36" y="86" width="280" height="120" rx="14" fill="#151d3b" opacity="0.9"/>
  <rect x="36" y="214" width="280" height="120" rx="14" fill="#151d3b" opacity="0.8"/>
  <rect x="36" y="342" width="280" height="120" rx="14" fill="#151d3b" opacity="0.7"/>
  <rect x="336" y="86" width="590" height="376" rx="14" fill="#0f1530" opacity="0.85"/>
  <rect x="350" y="102" width="560" height="36" rx="8" fill="#151d3b" />
  <g fill="#1b2450">
    <rect x="350" y="146" width="560" height="40" rx="8"/>
    <rect x="350" y="192" width="560" height="40" rx="8"/>
    <rect x="350" y="238" width="560" height="40" rx="8"/>
    <rect x="350" y="284" width="560" height="40" rx="8"/>
    <rect x="350" y="330" width="560" height="40" rx="8"/>
    <rect x="350" y="376" width="560" height="40" rx="8"/>
  </g>
  <g>
    <rect x="64" y="438" width="24" height="24" rx="4" fill="url(#bar)"/>
    <rect x="98" y="418" width="24" height="44" rx="4" fill="url(#bar)"/>
    <rect x="132" y="392" width="24" height="70" rx="4" fill="url(#bar)"/>
    <rect x="166" y="356" width="24" height="106" rx="4" fill="url(#bar)"/>
    <rect x="200" y="410" width="24" height="52" rx="4" fill="url(#bar)"/>
    <rect x="234" y="372" width="24" height="90" rx="4" fill="url(#bar)"/>
  </g>
</svg>
