<svg xmlns="http://www.w3.org/2000/svg" viewBox="0 0 360 720">
  <defs>
    <linearGradient id="hdr" x1="0" y1="0" x2="1" y2="0">
      <stop offset="0" stop-color="#6366F1"/>
      <stop offset="1" stop-color="#22D3EE"/>
    </linearGradient>
  </defs>
  <rect x="20" y="10" width="320" height="700" rx="44" fill="#0b1020" />
  <rect x="20" y="10" width="320" height="700" rx="44" fill="#ffffff" opacity="0.04"/>
  <rect x="135" y="16" width="90" height="12" rx="6" fill="#1f2845"/>
  <rect x="36" y="50" width="288" height="120" rx="18" fill="url(#hdr)"/>
  <text x="54" y="90" font-family="Inter, system-ui, -apple-system, Segoe UI, Roboto, Arial" font-size="18" fill="#fff" opacity="0.9">Solde disponible</text>
  <text x="54" y="124" font-family="Inter, system-ui, -apple-system" font-size="32" fill="#fff" font-weight="700">CHF 24 870</text>
  <g>
    <rect x="36" y="200" width="288" height="80" rx="14" fill="#0b1020" opacity="0.55"/>
    <rect x="36" y="288" width="288" height="80" rx="14" fill="#0b1020" opacity="0.45"/>
    <rect x="36" y="376" width="288" height="80" rx="14" fill="#0b1020" opacity="0.35"/>
    <rect x="36" y="464" width="288" height="80" rx="14" fill="#0b1020" opacity="0.25"/>
  </g>
  <g fill="#A7B0D8">
    <rect x="56" y="220" width="160" height="10" rx="5"/>
    <rect x="56" y="242" width="200" height="8" rx="4" opacity="0.7"/>
    <rect x="56" y="308" width="120" height="10" rx="5"/>
    <rect x="56" y="330" width="180" height="8" rx="4" opacity="0.7"/>
    <rect x="56" y="396" width="150" height="10" rx="5"/>
    <rect x="56" y="418" width="190" height="8" rx="4" opacity="0.7"/>
    <rect x="56" y="484" width="110" height="10" rx="5"/>
    <rect x="56" y="506" width="220" height="8" rx="4" opacity="0.7"/>
  </g>
</svg>
